<?xml version="1.0" standalone="no"?>
<!DOCTYPE svg PUBLIC "-//W3C//DTD SVG 20010904//EN"
 "http://www.w3.org/TR/2001/REC-SVG-20010904/DTD/svg10.dtd">
<svg version="1.0" xmlns="http://www.w3.org/2000/svg"
 width="260.000000pt" height="260.000000pt" viewBox="0 0 260.000000 260.000000"
 preserveAspectRatio="xMidYMid meet">
<metadata>
Created by potrace 1.14, written by Peter Selinger 2001-2017
</metadata>
<g transform="translate(0.000000,260.000000) scale(0.100000,-0.100000)"
fill="#000000" stroke="none">
<path d="M255 2586 c-103 -32 -178 -99 -224 -196 l-26 -55 0 -1035 0 -1035 26
-56 c37 -79 90 -133 167 -171 l67 -33 1035 0 1035 0 67 33 c77 38 130 92 167
171 l26 56 0 1035 0 1035 -33 67 c-38 77 -92 130 -171 167 l-56 26 -1020 2
c-803 1 -1029 -1 -1060 -11z"/>
</g>
</svg>
