<svg aria-hidden="true" style="position: absolute; width: 0; height: 0; overflow: hidden;" version="1.1" xmlns="http://www.w3.org/2000/svg" xmlns:xlink="http://www.w3.org/1999/xlink">
    <defs>
        <!-- change color - fill -->
        <symbol id="icon-pagination-right" viewBox="0 0 17 32">
        <path opacity="0.73" d="M0.758 0.842c-0.24 0.265-0.431 0.58-0.561 0.927s-0.197 0.718-0.197 1.094c0 0.375 0.067 0.747 0.197 1.094s0.321 0.662 0.561 0.927l10.056 11.12-10.056 11.12c-0.485 0.536-0.757 1.263-0.757 2.020s0.272 1.485 0.757 2.020c0.485 0.536 1.142 0.837 1.827 0.837s1.343-0.301 1.827-0.837l11.896-13.154c0.24-0.265 0.431-0.58 0.561-0.927s0.197-0.718 0.197-1.094c0-0.375-0.067-0.747-0.197-1.094s-0.321-0.662-0.561-0.927l-11.896-13.154c-0.985-1.089-2.644-1.089-3.654 0.029z"></path>
        </symbol>

        <!-- change color - fill -->
        <symbol id="icon-checkbox" viewBox="0 0 32 32">
        <path d="M26.151 1.405c0.992-1.463 2.981-1.845 4.444-0.853s1.845 2.982 0.853 4.444l-17.356 25.599c-1.269 1.872-4.028 1.872-5.297 0l-8.244-12.16c-0.992-1.463-0.61-3.453 0.853-4.444s3.453-0.61 4.444 0.853l5.595 8.253 14.707-21.693z"></path>
        </symbol>

        <!-- change color - stroke -->
        <symbol id="icon-clock" viewBox="0 0 32 32">
        <path fill="none" stroke="#23262a" style="stroke: var(--color1, #23262a)" stroke-linejoin="round" stroke-linecap="round" stroke-miterlimit="4" stroke-width="2.88" d="M15.999 29.333c7.364 0 13.333-5.97 13.333-13.333s-5.97-13.333-13.333-13.333c-7.364 0-13.333 5.97-13.333 13.333s5.97 13.333 13.333 13.333z"></path>
        <path fill="none" stroke="#23262a" style="stroke: var(--color1, #23262a)" stroke-linejoin="round" stroke-linecap="round" stroke-miterlimit="4" stroke-width="2.88" d="M16 8v8l5.333 2.667"></path>
        </symbol>

        <!-- change color - fill -->
        <symbol id="icon-pagination-left" viewBox="0 0 17 32">
        <path opacity="0.73" d="M16.309 0.842c0.24 0.265 0.431 0.58 0.561 0.927s0.197 0.718 0.197 1.094c0 0.375-0.067 0.747-0.197 1.094s-0.321 0.662-0.561 0.927l-10.056 11.12 10.056 11.12c0.485 0.536 0.757 1.263 0.757 2.020s-0.272 1.485-0.757 2.020c-0.485 0.536-1.142 0.837-1.827 0.837s-1.343-0.301-1.827-0.837l-11.896-13.154c-0.24-0.265-0.431-0.58-0.561-0.927s-0.197-0.718-0.197-1.094c0-0.375 0.067-0.747 0.197-1.094s0.321-0.662 0.561-0.927l11.896-13.154c0.985-1.089 2.644-1.089 3.654 0.029z"></path>
        </symbol>

        <!-- change color - stroke -->
        <symbol id="icon-trash" viewBox="0 0 32 32">
        <path stroke-linejoin="round" stroke-linecap="round" stroke-miterlimit="4" stroke-width="2.6667" d="M21.333 8v-1.067c0-1.493 0-2.24-0.291-2.811-0.256-0.502-0.664-0.91-1.165-1.165-0.57-0.291-1.317-0.291-2.811-0.291h-2.133c-1.493 0-2.24 0-2.811 0.291-0.502 0.256-0.91 0.664-1.165 1.165-0.291 0.57-0.291 1.317-0.291 2.811v1.067M13.333 15.333v6.667M18.667 15.333v6.667M4 8h24M25.333 8v14.933c0 2.24 0 3.36-0.436 4.216-0.383 0.753-0.995 1.365-1.748 1.748-0.856 0.436-1.976 0.436-4.216 0.436h-5.867c-2.24 0-3.36 0-4.216-0.436-0.753-0.383-1.365-0.995-1.748-1.748-0.436-0.856-0.436-1.976-0.436-4.216v-14.933"></path>
        </symbol>

        <!-- change color - fill -->
        <symbol id="icon-square" viewBox="0 0 32 32">
        <path d="M4.834 8.264l12.89-6.011c2.67-1.245 5.843-0.090 7.088 2.58l6.011 12.89c1.245 2.67 0.090 5.843-2.58 7.088l-12.89 6.011c-2.67 1.245-5.843 0.090-7.088-2.58l-6.011-12.89c-1.245-2.67-0.090-5.843 2.58-7.088z"></path>
        </symbol>

        <!-- change color - stroke -->
        <symbol id="icon-plus" viewBox="0 0 32 32">
        <path fill="none" stroke-linejoin="round" stroke-linecap="round" stroke-miterlimit="4" stroke-width="3" d="M5 16h22"></path>
        <path fill="none" stroke-linejoin="round" stroke-linecap="round" stroke-miterlimit="4" stroke-width="3" d="M16 5v22"></path>
        </symbol>

        <!-- change color - stroke -->
        <symbol id="icon-minus" viewBox="0 0 32 32">
        <path stroke-linejoin="round" stroke-linecap="round" stroke-miterlimit="4" stroke-width="3" d="M5 16h22"></path>
        </symbol>

        <!-- change color - fill -->
        <symbol id="icon-photo-camera" viewBox="0 0 32 32">
        <path d="M16 23.333c1.667 0 3.084-0.583 4.251-1.749s1.749-2.584 1.749-4.251-0.583-3.084-1.749-4.251c-1.167-1.166-2.584-1.749-4.251-1.749s-3.084 0.583-4.251 1.749c-1.166 1.167-1.749 2.584-1.749 4.251s0.583 3.084 1.749 4.251c1.167 1.166 2.584 1.749 4.251 1.749zM5.333 28c-0.733 0-1.361-0.261-1.883-0.783s-0.784-1.151-0.784-1.884v-16c0-0.733 0.261-1.361 0.784-1.883s1.149-0.784 1.883-0.784h4.2l2.467-2.667h8l2.467 2.667h4.2c0.733 0 1.361 0.261 1.884 0.784s0.783 1.149 0.783 1.883v16c0 0.733-0.261 1.361-0.783 1.884s-1.151 0.783-1.884 0.783h-21.333z"></path>
        </symbol>

        <!-- change color - stroke and fill-->
        <symbol id="icon-add-photo-recipe" viewBox="0 0 32 32">
        <path  stroke-linejoin="round" stroke-linecap="round" stroke-miterlimit="4" stroke-width="0.5" d="M28.191 11.429v-4.581c0-0.807-0.32-1.58-0.889-2.152s-1.342-0.893-2.149-0.896l-4.581-0.014M28.191 20.571v4.571c0 0.808-0.321 1.583-0.893 2.155s-1.347 0.893-2.155 0.893h-4.571M11.429 3.787l-4.581 0.015c-0.807 0.002-1.58 0.325-2.149 0.896s-0.889 1.345-0.889 2.152v4.579M11.429 28.19h-4.571c-0.808 0-1.583-0.321-2.155-0.893s-0.893-1.347-0.893-2.155v-4.571"></path>
        <path d="M16 18.75c0.625 0 1.156-0.219 1.594-0.656s0.656-0.969 0.656-1.594-0.219-1.156-0.656-1.594c-0.438-0.437-0.969-0.656-1.594-0.656s-1.156 0.219-1.594 0.656c-0.437 0.438-0.656 0.969-0.656 1.594s0.219 1.156 0.656 1.594c0.438 0.437 0.969 0.656 1.594 0.656zM12 20.5c-0.275 0-0.51-0.098-0.706-0.294s-0.294-0.431-0.294-0.706v-6c0-0.275 0.098-0.51 0.294-0.706s0.431-0.294 0.706-0.294h1.575l0.925-1h3l0.925 1h1.575c0.275 0 0.511 0.098 0.706 0.294s0.294 0.431 0.294 0.706v6c0 0.275-0.098 0.511-0.294 0.706s-0.431 0.294-0.706 0.294h-8z"></path>
        </symbol>

         <!-- change color - fill -->
        <symbol id="icon-switch-body" viewBox="0 0 70 32">
        <path d="M15.429 0.571h38.857c8.521 0 15.429 6.908 15.429 15.429s-6.908 15.429-15.429 15.429h-38.857c-8.521 0-15.429-6.908-15.429-15.429s6.908-15.429 15.429-15.429z"></path>
        </symbol>

         <!-- change color - fill -->
        <symbol id="icon-switch-button" viewBox="0 0 32 32">
        <path d="M23.906 15.059c0 5.458-4.498 9.882-10.047 9.882s-10.047-4.424-10.047-9.882c0-5.458 4.498-9.882 10.047-9.882s10.047 4.424 10.047 9.882z"></path>
        </symbol>

        <!-- change color - stroke -->
        <symbol id="icon-letter" viewBox="0 0 37 32">
        <path fill="none" stroke-linejoin="round" stroke-linecap="round" stroke-miterlimit="4" stroke-width="2.0211" d="M5.053 2.526h26.947c0.892 0.003 1.748 0.358 2.379 0.99s0.987 1.486 0.989 2.379v20.211c-0.003 0.892-0.358 1.748-0.989 2.379s-1.486 0.987-2.379 0.989h-26.947c-0.893-0.003-1.748-0.358-2.379-0.989s-0.987-1.486-0.99-2.379v-20.211c0.003-0.893 0.358-1.748 0.99-2.379s1.486-0.987 2.379-0.99v0z"></path>
        <path fill="none" stroke-linejoin="round" stroke-linecap="round" stroke-miterlimit="4" stroke-width="2.0211" d="M35.368 5.895l-16.842 11.789-16.842-11.789"></path>
        </symbol>

         <!-- change color - stroke -->
        <symbol id="icon-arrow-right" viewBox="0 0 32 32">
        <path fill="none" stroke-linejoin="round" stroke-linecap="round" stroke-miterlimit="4" stroke-width="2.6667" d="M5.333 16h21.333M26.667 16l-8-8M26.667 16l-8 8"></path>
        </symbol>

         <!-- change color - stroke -->
        <symbol id="icon-close" viewBox="0 0 32 32">
        <path stroke-linejoin="round" stroke-linecap="round" stroke-miterlimit="4" stroke-width="2.6667" d="M25 7l-18 18"></path>
        <path stroke-linejoin="round" stroke-linecap="round" stroke-miterlimit="4" stroke-width="2.6667" d="M25 25l-18-18"></path>
        </symbol>

         <!-- change color - fill -->
        <symbol id="icon-edit" viewBox="0 0 32 32">
        <path stroke-linejoin="round" stroke-linecap="round" stroke-miterlimit="4" stroke-width="2.1895" d="M3.791 24.546c0.077-0.696 0.116-1.045 0.221-1.37 0.093-0.289 0.226-0.564 0.393-0.817 0.188-0.285 0.436-0.533 0.932-1.029l17.33-17.33c1.473-1.473 3.861-1.473 5.333 0v0c1.473 1.473 1.473 3.861 0 5.333l-17.33 17.33c-0.495 0.495-0.743 0.743-1.029 0.932-0.253 0.167-0.528 0.299-0.817 0.393-0.325 0.105-0.674 0.144-1.37 0.221l-4.121 0.458 0.458-4.121z"></path>
        </symbol>

        <!-- change color - fill, style="transform: rotate(45deg)"-->
        <symbol id="icon-add" viewBox="0 0 32 32" >
            <path d="M0 16c0-8.838 7.162-16 16-16s16 7.162 16 16c0 8.837-7.163 16-16 16s-16-7.163-16-16zM10.938 13.006l2.944 2.938-2.944 2.994c-0.581 0.588-0.581 1.538 0 2.069 0.588 0.637 1.537 0.637 2.069 0l2.938-2.888 2.994 2.888c0.588 0.637 1.538 0.637 2.069 0 0.637-0.531 0.637-1.481 0-2.069l-2.888-2.994 2.888-2.938c0.637-0.531 0.637-1.481 0-2.069-0.531-0.581-1.481-0.581-2.069 0l-2.994 2.944-2.938-2.944c-0.531-0.581-1.481-0.581-2.069 0-0.581 0.588-0.581 1.537 0 2.069z"></path>
        </symbol>

        <!-- change color - fill -->
        <symbol id="icon-validation-attention" viewBox="0 0 32 32">
        <path d="M16 0c-8.838 0-16 7.162-16 16s7.162 16 16 16c8.837 0 16-7.163 16-16s-7.163-16-16-16zM14.5 9.5c0-0.825 0.675-1.5 1.5-1.5s1.5 0.672 1.5 1.5v8c0 0.828-0.672 1.5-1.5 1.5s-1.5-0.669-1.5-1.5v-8zM16 25c-1.085 0-1.965-0.88-1.965-1.965s0.879-1.965 1.965-1.965c1.086 0 1.965 0.88 1.965 1.965-0.002 1.084-0.877 1.965-1.965 1.965z"></path>
        </symbol>

         <!-- change color - stroke -->
        <symbol id="icon-lock" viewBox="0 0 31 32">
        <path fill="none" opacity="0.8" stroke-linejoin="round" stroke-linecap="round" stroke-miterlimit="4" stroke-width="2.56" d="M21.76 14.72v-3.84c0-3.535-2.865-6.4-6.4-6.4s-6.4 2.865-6.4 6.4v3.84M9.984 27.52h10.752c2.151 0 3.226 0 4.047-0.419 0.723-0.368 1.31-0.956 1.678-1.678 0.419-0.822 0.419-1.897 0.419-4.047v-0.512c0-2.151 0-3.226-0.419-4.047-0.368-0.723-0.956-1.31-1.678-1.678-0.822-0.419-1.897-0.419-4.047-0.419h-10.752c-2.151 0-3.226 0-4.047 0.419-0.723 0.368-1.31 0.956-1.678 1.678-0.419 0.822-0.419 1.897-0.419 4.047v0.512c0 2.151 0 3.226 0.419 4.047 0.368 0.723 0.956 1.31 1.678 1.678 0.821 0.419 1.897 0.419 4.047 0.419z"></path>
        </symbol>

        <!-- change color - fill -->
        <symbol id="icon-validation-success" viewBox="0 0 32 32">
        <path d="M0 16c0-8.838 7.162-16 16-16s16 7.162 16 16c0 8.837-7.163 16-16 16s-16-7.163-16-16zM23.237 13.238c0.681-0.681 0.681-1.794 0-2.475s-1.794-0.681-2.475 0l-6.763 6.762-2.763-2.762c-0.681-0.681-1.794-0.681-2.475 0s-0.681 1.794 0 2.475l4 4c0.681 0.681 1.794 0.681 2.475 0l8-8z"></path>
        </symbol>

        <!-- change color - fill -->
        <symbol id="icon-validation-error" viewBox="0 0 32 32">
        <path d="M0 16c0-8.838 7.162-16 16-16s16 7.162 16 16c0 8.837-7.163 16-16 16s-16-7.163-16-16zM10.938 13.006l2.944 2.938-2.944 2.994c-0.581 0.588-0.581 1.538 0 2.069 0.588 0.637 1.537 0.637 2.069 0l2.938-2.888 2.994 2.888c0.588 0.637 1.538 0.637 2.069 0 0.637-0.531 0.637-1.481 0-2.069l-2.888-2.994 2.888-2.938c0.637-0.531 0.637-1.481 0-2.069-0.531-0.581-1.481-0.581-2.069 0l-2.994 2.944-2.938-2.944c-0.531-0.581-1.481-0.581-2.069 0-0.581 0.588-0.581 1.537 0 2.069z"></path>
        </symbol>

         <!-- change color - stroke -->
        <symbol id="icon-person" viewBox="0 0 31 32">
        <path fill="none" opacity="0.8" stroke-linejoin="round" stroke-linecap="round" stroke-miterlimit="4" stroke-width="2.56" d="M25.6 27.52c0-1.786 0-2.679-0.22-3.406-0.496-1.636-1.777-2.917-3.413-3.413-0.727-0.22-1.62-0.22-3.406-0.22h-6.4c-1.786 0-2.679 0-3.406 0.22-1.636 0.496-2.917 1.777-3.413 3.413-0.22 0.727-0.22 1.62-0.22 3.406M21.12 10.24c0 3.181-2.579 5.76-5.76 5.76s-5.76-2.579-5.76-5.76c0-3.181 2.579-5.76 5.76-5.76s5.76 2.579 5.76 5.76z"></path>
        </symbol>

        <!-- change color - stroke -->
        <symbol id="icon-search" viewBox="0 0 32 32">
        <path fill="none" stroke-linejoin="round" stroke-linecap="round" stroke-miterlimit="4" stroke-width="2.6667" d="M14.667 25.333c5.891 0 10.667-4.776 10.667-10.667s-4.776-10.667-10.667-10.667c-5.891 0-10.667 4.776-10.667 10.667s4.776 10.667 10.667 10.667z"></path>
        <path fill="none" stroke-linejoin="round" stroke-linecap="round" stroke-miterlimit="4" stroke-width="2.6667" d="M28.001 28l-5.8-5.8"></path>
        </symbol>

        <!-- change color - fill -->
        <symbol id="icon-instagram" viewBox="0 0 30 32">
        <path d="M21.587 3.301c1.683 0.005 3.295 0.676 4.484 1.865s1.86 2.802 1.865 4.484v12.698c-0.005 1.683-0.676 3.295-1.865 4.484s-2.802 1.86-4.484 1.865h-12.698c-1.682-0.005-3.295-0.676-4.484-1.865s-1.86-2.802-1.865-4.484v-12.698c0.005-1.682 0.676-3.295 1.865-4.484s2.802-1.86 4.484-1.865h12.698zM21.587 0.762h-12.698c-4.889 0-8.889 4-8.889 8.889v12.698c0 4.889 4 8.889 8.889 8.889h12.698c4.889 0 8.889-4 8.889-8.889v-12.698c0-4.889-4-8.889-8.889-8.889z"></path>
        <path d="M23.492 9.654c-0.377 0-0.745-0.112-1.058-0.321s-0.557-0.507-0.702-0.855-0.182-0.731-0.108-1.101c0.074-0.369 0.255-0.709 0.521-0.975s0.606-0.448 0.975-0.521c0.369-0.074 0.752-0.036 1.101 0.108s0.645 0.388 0.855 0.702c0.209 0.313 0.321 0.681 0.321 1.058 0.001 0.25-0.048 0.498-0.144 0.73s-0.236 0.442-0.413 0.619c-0.177 0.177-0.387 0.317-0.619 0.413s-0.479 0.144-0.73 0.144zM15.238 10.923c1.005 0 1.987 0.298 2.822 0.856s1.486 1.351 1.871 2.28c0.384 0.928 0.485 1.95 0.289 2.935s-0.68 1.89-1.39 2.601-1.615 1.194-2.601 1.39c-0.985 0.196-2.007 0.095-2.935-0.289s-1.722-1.036-2.28-1.871c-0.558-0.835-0.856-1.817-0.856-2.822 0.001-1.347 0.537-2.638 1.489-3.59s2.243-1.488 3.59-1.489zM15.238 8.383c-1.507 0-2.98 0.447-4.233 1.284s-2.229 2.027-2.806 3.419c-0.577 1.392-0.728 2.924-0.434 4.402s1.020 2.835 2.085 3.901c1.066 1.066 2.423 1.791 3.901 2.085s3.010 0.143 4.402-0.434c1.392-0.577 2.582-1.553 3.419-2.806s1.284-2.726 1.284-4.233c0-2.021-0.803-3.959-2.232-5.388s-3.367-2.232-5.387-2.232z"></path>
        </symbol>

         <!-- change color - fill -->
        <symbol id="icon-twitter" viewBox="0 0 38 32">
        <path d="M37.647 4.51c-1.412 0.614-2.906 1.018-4.435 1.2 1.607-0.941 2.815-2.436 3.398-4.204-1.519 0.888-3.179 1.512-4.907 1.843-0.728-0.763-1.603-1.369-2.573-1.783s-2.013-0.626-3.067-0.624c-4.268 0-7.722 3.404-7.722 7.6-0.003 0.584 0.064 1.166 0.199 1.733-3.061-0.143-6.058-0.924-8.799-2.292s-5.167-3.293-7.122-5.653c-0.686 1.156-1.049 2.475-1.050 3.82 0 2.635 1.375 4.965 3.451 6.329-1.23-0.029-2.435-0.355-3.512-0.949v0.094c0 3.686 2.667 6.753 6.196 7.451-0.664 0.177-1.348 0.267-2.034 0.267-0.487 0.001-0.974-0.047-1.452-0.141 0.981 3.019 3.837 5.216 7.22 5.278-2.749 2.118-6.123 3.263-9.594 3.255-0.616-0.001-1.231-0.038-1.843-0.11 3.53 2.254 7.634 3.447 11.823 3.435 14.224 0 21.995-11.584 21.995-21.631 0-0.329-0.008-0.659-0.024-0.98 1.508-1.073 2.813-2.406 3.853-3.937z"></path>
        </symbol>

         <!-- change color - fill -->
        <symbol id="icon-youtube" viewBox="0 0 43 32">
        <path d="M42.393 7.066c0-3.75-2.759-6.766-6.167-6.766-4.617-0.216-9.326-0.299-14.138-0.299h-1.5c-4.801 0-9.518 0.083-14.135 0.3-3.4 0-6.159 3.033-6.159 6.783-0.208 2.966-0.297 5.932-0.292 8.899-0.008 2.967 0.086 5.936 0.283 8.908 0 3.75 2.759 6.791 6.159 6.791 4.851 0.225 9.826 0.325 14.885 0.317 5.067 0.017 10.029-0.089 14.885-0.317 3.409 0 6.167-3.042 6.167-6.791 0.2-2.975 0.292-5.942 0.284-8.916 0.019-2.967-0.072-5.936-0.272-8.908zM17.253 24.157v-16.375l12.085 8.183-12.085 8.191z"></path>
        </symbol>

        <!-- change color - fill -->
        <symbol id="icon-facebook" viewBox="0 0 30 32">
        <path d="M30.476 16.092c0-8.466-6.823-15.33-15.238-15.33s-15.238 6.864-15.238 15.33c0 7.651 5.571 13.994 12.857 15.145v-10.712h-3.87v-4.433h3.87v-3.377c0-3.841 2.276-5.965 5.756-5.965 1.667 0 3.412 0.3 3.412 0.3v3.773h-1.922c-1.892 0-2.484 1.181-2.484 2.395v2.874h4.226l-0.675 4.433h-3.55v10.713c7.286-1.15 12.857-7.493 12.857-15.146z"></path>
        </symbol>

        <!-- change color - stroke -->
        <symbol id="icon-knife-btn" viewBox="0 0 32 32">
            <path fill="none" stroke-linejoin="round" stroke-linecap="round" stroke-miterlimit="4" stroke-width="2.6667" d="M1.333 1.47v7.271c0 2.076 0.906 3.914 2.31 5.104 0.687 0.582 1.141 1.367 1.141 2.239v12.138c0 1.349 1.16 2.445 2.588 2.445s2.588-1.095 2.588-2.445v-12.138c0-0.872 0.454-1.657 1.141-2.239 1.405-1.19 2.31-3.028 2.31-5.104v0"></path>
            <path fill="none" stroke-linejoin="round" stroke-linecap="round" stroke-miterlimit="4" stroke-width="2.6667" d="M7.372 9.482v-8.148"></path>
            <path fill="none" stroke-linejoin="round" stroke-linecap="round" stroke-miterlimit="4" stroke-width="2.6667" d="M30.667 3.047c0-0.9-0.773-1.63-1.725-1.63h-1.726c-2.859 0-5.176 2.189-5.176 4.889v9.778c0 2.125 1.444 3.916 3.451 4.589v7.549c0 1.349 1.16 2.445 2.588 2.445s2.588-1.095 2.588-2.445v-25.175z"></path>
        </symbol>

         <!-- change color - stroke -->
        <symbol id="icon-burger" viewBox="0 0 48 32">
            <path stroke-linejoin="round" stroke-linecap="round" stroke-miterlimit="4" stroke-width="4" d="M3 16h42M3 2h42M3 30h28"></path>
        </symbol>
    </defs>
</svg>
